<?xml version="1.0" encoding="utf-8"?>
<!-- Generator: Adobe Illustrator 24.3.0, SVG Export Plug-In . SVG Version: 6.00 Build 0)  -->
<svg version="1.1" id="Layer_1" xmlns="http://www.w3.org/2000/svg" xmlns:xlink="http://www.w3.org/1999/xlink" x="0px" y="0px"
	 viewBox="0 0 144 144" style="enable-background:new 0 0 144 144;" xml:space="preserve">
<g>
	<polygon points="31.5,77.05 32.47,77.05 32.47,72.2 32.47,67.35 31.5,67.35 	"/>
	<polygon points="48.67,75.52 41.78,67.35 40.91,67.35 40.91,77.05 41.88,77.05 41.88,68.9 48.77,77.05 49.64,77.05 49.64,67.35 
		48.67,67.35 	"/>
	<polygon points="65.88,75.52 58.99,67.35 58.12,67.35 58.12,77.05 59.09,77.05 59.09,68.9 65.98,77.05 66.85,77.05 66.85,67.35 
		65.88,67.35 	"/>
	<polygon points="106.7,77.05 114.08,77.05 114.08,76.18 107.64,76.18 107.64,72.42 113.04,72.42 113.04,71.55 107.64,71.55 
		107.64,68.22 114.08,68.22 114.08,67.35 106.7,67.35 	"/>
	<polygon points="127.26,67.35 121.1,67.35 121.1,68.22 124.86,68.22 124.86,77.05 125.83,77.05 125.83,68.22 129.38,68.22 
		129.38,67.35 	"/>
	<polygon points="75.33,77.05 82.7,77.05 82.7,76.18 76.27,76.18 76.27,72.42 81.66,72.42 81.66,71.55 76.27,71.55 76.27,68.22 
		82.7,68.22 82.7,67.35 75.33,67.35 	"/>
	<path d="M19.37,72.22l3.58-4.88h-1.14l-3.2,4.44h-2.55v-4.44h-0.97v9.7h0.97v-4.41h2.45c0.91,0.84,1.81,4.55,4.22,4.55
		c0.46,0,0.93-0.12,1.31-0.27v-0.86c-0.35,0.15-0.78,0.26-1.15,0.26C21.1,76.32,20.21,73.09,19.37,72.22z"/>
	<path d="M94.99,73.37c1.58-0.13,2.9-1.24,2.9-2.97c0-2.17-1.67-3.05-3.41-3.05H90.3v9.7h0.97v-3.65h1.37h0.6h0.71
		c0.78,1.37,1.74,3.79,3.69,3.79c0.46,0,0.93-0.12,1.31-0.27v-0.86c-0.35,0.15-0.78,0.26-1.15,0.26
		C96.49,76.32,95.66,74.63,94.99,73.37z M91.27,72.6v-4.38h3.3c1.26,0,2.33,0.7,2.33,2.21c0,1.38-1.07,2.17-2.33,2.17H91.27z"/>
</g>
</svg>
